<svg class="icon" viewBox="0 0 1024 1024" version="1.1"
    xmlns="http://www.w3.org/2000/svg" width="48" height="48">
    <path
        d="M825.002667 187.733333H256.853333c-56.490667 0-102.4 45.909333-102.4 102.4v315.733334c0 56.490667 45.909333 102.4 102.4 102.4h568.149334c56.490667 0 102.4-45.909333 102.4-102.4V290.133333c0-56.490667-45.909333-102.4-102.4-102.4z m34.133333 418.133334c0 18.773333-15.36 34.133333-34.133333 34.133333H256.853333c-18.773333 0-34.133333-15.36-34.133333-34.133333V290.133333c0-18.773333 15.36-34.133333 34.133333-34.133333h568.149334c18.773333 0 34.133333 15.36 34.133333 34.133333v315.733334zM724.48 785.066667h-366.933333c-18.773333 0-34.133333 15.36-34.133334 34.133333s15.36 34.133333 34.133334 34.133333h366.933333c18.773333 0 34.133333-15.36 34.133333-34.133333s-15.36-34.133333-34.133333-34.133333z"
        fill="#F940A7"/>
</svg>