<svg class="icon" viewBox="0 0 1024 1024" version="1.1" xmlns="http://www.w3.org/2000/svg"
    width="48" height="48">
    <path
        d="M746.672 128H704a32 32 0 1 0 0 64h42.672A85.44 85.44 0 0 1 832 277.328V320a32 32 0 1 0 64 0v-42.672C896 194.992 829.008 128 746.672 128zM320 128h-42.672C194.992 128 128 194.992 128 277.328V320a32 32 0 1 0 64 0v-42.672A85.44 85.44 0 0 1 277.328 192H320a32 32 0 1 0 0-64zM320 832h-42.672A85.44 85.44 0 0 1 192 746.672V704a32 32 0 1 0-64 0v42.672C128 829.008 194.992 896 277.328 896H320a32 32 0 1 0 0-64zM864 672a32 32 0 0 0-32 32v42.672A85.44 85.44 0 0 1 746.672 832H704a32 32 0 1 0 0 64h42.672C829.008 896 896 829.008 896 746.672V704a32 32 0 0 0-32-32z"
        fill="#333333" />
    <path d="M704 480H320a32 32 0 1 0 0 64h384a32 32 0 1 0 0-64z" fill="#333333" />
</svg>