<?xml version="1.0" encoding="UTF-8"?>
<svg width="24px" height="24px" viewBox="0 0 24 24" version="1.1" xmlns="http://www.w3.org/2000/svg" xmlns:xlink="http://www.w3.org/1999/xlink">
    <title>编组 2</title>
    <g id="页面-1" stroke="none" stroke-width="1" fill="none" fill-rule="evenodd">
        <g id="歌库-播放详情页-车载版-暗色" transform="translate(-176.000000, -719.000000)">
            <g id="编组-5" transform="translate(162.500000, 719.000000)">
                <g id="编组-2" transform="translate(13.500000, 0.000000)">
                    <rect id="矩形" x="0" y="0" width="24" height="24"></rect>
                    <g id="编组备份-19" transform="translate(0.000000, 1.000000)" fill="#F940A7">
                        <path d="M17.4,0 C21.04506,0 24,3.15641696 24,7.05000845 C24,14.1000169 16.2,20.5091155 12,22 C7.8,20.5091155 0,14.1000169 0,7.05000845 C0,3.15641696 2.954922,0 6.6,0 C8.83218,0 10.80558,1.18369642 12,2.9954845 C13.19442,1.18369642 15.16782,0 17.4,0 Z M7.57894737,3.22323712 C5.29268874,4.20700076 3.46368183,6.05741333 2.52631579,8.39970771 L3.8523458,8.39970771 C4.60681115,6.71325575 5.93284115,5.35472501 7.57894737,4.58176786 Z" id="形状结合"></path>
                    </g>
                </g>
            </g>
        </g>
    </g>
</svg>