<?xml version="1.0" encoding="UTF-8"?>
<svg width="24px" height="24px" viewBox="0 0 24 24" version="1.1" xmlns="http://www.w3.org/2000/svg" xmlns:xlink="http://www.w3.org/1999/xlink">
    <title>编组</title>
    <g id="页面-1" stroke="none" stroke-width="1" fill="none" fill-rule="evenodd">
        <g id="歌库-播放详情页-车载版-暗色" transform="translate(-44.000000, -719.000000)" fill="#FF5F5F" fill-rule="nonzero">
            <g id="编组-5备份" transform="translate(39.000000, 719.000000)">
                <g id="编组" transform="translate(5.000000, 0.000000)">
                    <path d="M12,0 C5.38370036,0 0,5.38287096 0,12 C0,18.617129 5.38287096,24 12,24 C18.6162996,24 24,18.617129 24,12 C24,5.38287096 18.617129,0 12,0 Z M16.8951485,15.6960009 C17.2294354,16.0319926 17.2285599,16.573717 16.8934437,16.9080039 C16.7263233,17.0742949 16.5077352,17.1582928 16.2883176,17.1582928 C16.0680247,17.1582928 15.8486072,17.0742949 15.6814407,16.9062991 L11.9957149,13.2094227 L8.29800911,16.8677328 C8.13088872,17.032319 7.91312997,17.1154415 7.69541729,17.1154415 C7.47429493,17.1154415 7.25400198,17.0305681 7.08600611,16.8608674 C6.75342407,16.5240002 6.75600437,15.9822758 7.09287155,15.6488644 L10.7862922,11.9957148 L7.10655635,8.30399906 C6.77226948,7.96883673 6.77314495,7.42628293 7.10826118,7.09199606 C7.44342351,6.75683373 7.98510185,6.75858466 8.32026418,7.09370089 L12.0051145,10.7897018 L15.7028203,7.13143773 C16.038812,6.79802633 16.5822412,6.80143599 16.9148233,7.13830318 C17.2482347,7.47517034 17.244825,8.01772414 16.9079578,8.35030618 L13.2145833,12.0034097 L16.8951485,15.6960009 Z" id="形状"></path>
                </g>
            </g>
        </g>
    </g>
</svg>