<?xml version="1.0" encoding="UTF-8"?>
<svg width="90px" height="90px" viewBox="0 0 90 90" version="1.1" xmlns="http://www.w3.org/2000/svg">
    <title>编组 11</title>
    <g id="页面-1" stroke="none" stroke-width="1" fill="none" fill-rule="evenodd">
        <g id="歌库-播放详情页-车载版-暗色备份" transform="translate(-142.000000, -524.000000)">
            <g id="编组-11" transform="translate(142.000000, 524.000000)">
                <rect stroke="#000000" opacity="0.2" x="2" y="2" width="86" height="86" rx="44.5" stroke-width="3"/>
                <path d="M37,37.0000522 L37.0066861,36.8362377 C37.0599787,36.1857373 37.4287119,35.5977628 37.9999377,35.2679626 C38.6187656,34.9106791 39.3812133,34.9106791 40.0000412,35.2679626 C40.0238423,35.2817043 40.0472918,35.2958942 40.0703816,35.3105182 L40.1042514,35.3324507 C40.1199797,35.342862 40.1355339,35.3534778 40.1509113,35.3642933 L52.16992,43.3795882 C52.6675899,43.7451554 52.993883,44.3359221 52.9999156,44.9994704 C53.0060025,45.6811599 52.682337,46.2887528 52.1732561,46.6508601 L52.0999204,46.6993468 L40.1019425,54.668142 C39.781575,54.889759 39.4002266,55.0139892 38.9999894,54.9987431 C37.8999953,54.958746 37,54.0988086 37,52.9988886 L37,37.0000522 Z" id="形状结合" fill="#FFFFFF" fill-rule="nonzero"/>
            </g>
        </g>
    </g>
</svg>