<svg height="15" viewBox="0 0 16 15" width="16" xmlns="http://www.w3.org/2000/svg"><path d="m2.52631579 10.828125c1.10934165 0 2.00866873.8958141 2.00866873 2.0008224s-.89932708 2.0008223-2.00866873 2.0008223c-1.10935268 0-2.00866873-.8958092-2.00866873-2.0008223s.89931605-2.0008224 2.00866873-2.0008224zm0 .84375c-.6415337 0-1.16160991.5180482-1.16160991 1.1570724 0 .6390241.52007621 1.1570723 1.16160991 1.1570723.64152398 0 1.16160991-.5180543 1.16160991-1.1570723 0-.6390181-.52008593-1.1570724-1.16160991-1.1570724zm12.53250771.890625c.3118785 0 .5647059.2518398.5647059.5625 0 .2795942-.2047902.5115438-.4731076.5551378l-.0915983.0073622h-8.71826622c-.31187845 0-.56470589-.2518398-.56470589-.5625 0-.2795942.20479023-.5115438.47310766-.5551378l.09159823-.0073622zm-12.53250771-6.890625c1.1093537 0 2.00866873.89578661 2.00866873 2.00082237s-.89931503 2.00082237-2.00866873 2.00082237c-1.10936473 0-2.00866873-.89578181-2.00866873-2.00082237s.899304-2.00082237 2.00866873-2.00082237zm0 .84375c-.64154903 0-1.16160991.51802402-1.16160991 1.15707237 0 .63904834.52006088 1.15707237 1.16160991 1.15707237.64153931 0 1.16160991-.51803013 1.16160991-1.15707237s-.5200706-1.15707237-1.16160991-1.15707237zm12.53250771.609375c.3118785 0 .5647059.25183983.5647059.5625 0 .27959415-.2047902.51154383-.4731076.55513782l-.0915983.00736218h-8.71826622c-.31187845 0-.56470589-.25183983-.56470589-.5625 0-.27959415.20479023-.51154383.47310766-.55513782l.09159823-.00736218zm-12.53250771-6.609375c1.10934647 0 2.00866873.89580309 2.00866873 2.00082237 0 1.10503576-.89931503 2.00082237-2.00866873 2.00082237-1.10936473 0-2.00866873-.89578181-2.00866873-2.00082237 0-1.10502408.89931123-2.00082237 2.00866873-2.00082237zm0 .84375c-.64153983 0-1.16160991.51803855-1.16160991 1.15707237 0 .63904834.52006088 1.15707237 1.16160991 1.15707237.64153931 0 1.16160991-.51803013 1.16160991-1.15707237 0-.63902771-.5200798-1.15707237-1.16160991-1.15707237zm12.53250771.59457237c.3118785 0 .5647059.25183983.5647059.5625 0 .27959415-.2047902.51154383-.4731076.55513782l-.0915983.00736218h-8.71826622c-.31187845 0-.56470589-.25183983-.56470589-.5625 0-.27959416.20479023-.51154383.47310766-.55513783l.09159823-.00736217z" fill="#999"/></svg>