<?xml version="1.0" encoding="UTF-8"?>
<svg width="16px" height="15px" viewBox="0 0 16 15" version="1.1" xmlns="http://www.w3.org/2000/svg" xmlns:xlink="http://www.w3.org/1999/xlink">
    <title>编组</title>
    <g id="页面-1" stroke="none" stroke-width="1" fill="none" fill-rule="evenodd">
        <g id="歌库-歌曲" transform="translate(-343.000000, -103.000000)" fill="#999999" fill-rule="nonzero">
            <g id="编组" transform="translate(343.000000, 103.000000)">
                <path d="M2.52631579,10.828125 C3.63565744,10.828125 4.53498452,11.7239391 4.53498452,12.8289474 C4.53498452,13.9339557 3.63565744,14.8297697 2.52631579,14.8297697 C1.41696311,14.8297697 0.517647059,13.9339605 0.517647059,12.8289474 C0.517647059,11.7239343 1.41696311,10.828125 2.52631579,10.828125 Z M2.52631579,11.671875 C1.88478209,11.671875 1.36470588,12.1899232 1.36470588,12.8289474 C1.36470588,13.4679715 1.88478209,13.9860197 2.52631579,13.9860197 C3.16783977,13.9860197 3.6879257,13.4679654 3.6879257,12.8289474 C3.6879257,12.1899293 3.16783977,11.671875 2.52631579,11.671875 Z M15.0588235,12.5625 C15.370702,12.5625 15.6235294,12.8143398 15.6235294,13.125 C15.6235294,13.4045942 15.4187392,13.6365438 15.1504218,13.6801378 L15.0588235,13.6875 L6.34055728,13.6875 C6.02867883,13.6875 5.77585139,13.4356602 5.77585139,13.125 C5.77585139,12.8454058 5.98064162,12.6134562 6.24895905,12.5698622 L6.34055728,12.5625 L15.0588235,12.5625 Z M2.52631579,5.671875 C3.63566949,5.671875 4.53498452,6.56766161 4.53498452,7.67269737 C4.53498452,8.77773313 3.63566949,9.67351974 2.52631579,9.67351974 C1.41695106,9.67351974 0.517647059,8.77773793 0.517647059,7.67269737 C0.517647059,6.56765681 1.41695106,5.671875 2.52631579,5.671875 Z M2.52631579,6.515625 C1.88476676,6.515625 1.36470588,7.03364902 1.36470588,7.67269737 C1.36470588,8.31174571 1.88476676,8.82976974 2.52631579,8.82976974 C3.1678551,8.82976974 3.6879257,8.31173961 3.6879257,7.67269737 C3.6879257,7.03365513 3.1678551,6.515625 2.52631579,6.515625 Z M15.0588235,7.125 C15.370702,7.125 15.6235294,7.37683983 15.6235294,7.6875 C15.6235294,7.96709415 15.4187392,8.19904383 15.1504218,8.24263782 L15.0588235,8.25 L6.34055728,8.25 C6.02867883,8.25 5.77585139,7.99816017 5.77585139,7.6875 C5.77585139,7.40790585 5.98064162,7.17595617 6.24895905,7.13236218 L6.34055728,7.125 L15.0588235,7.125 Z M2.52631579,0.515625 C3.63566226,0.515625 4.53498452,1.41142809 4.53498452,2.51644737 C4.53498452,3.62148313 3.63566949,4.51726974 2.52631579,4.51726974 C1.41695106,4.51726974 0.517647059,3.62148793 0.517647059,2.51644737 C0.517647059,1.41142329 1.41695829,0.515625 2.52631579,0.515625 Z M2.52631579,1.359375 C1.88477596,1.359375 1.36470588,1.87741355 1.36470588,2.51644737 C1.36470588,3.15549571 1.88476676,3.67351974 2.52631579,3.67351974 C3.1678551,3.67351974 3.6879257,3.15548961 3.6879257,2.51644737 C3.6879257,1.87741966 3.1678459,1.359375 2.52631579,1.359375 Z M15.0588235,1.95394737 C15.370702,1.95394737 15.6235294,2.2057872 15.6235294,2.51644737 C15.6235294,2.79604152 15.4187392,3.0279912 15.1504218,3.07158519 L15.0588235,3.07894737 L6.34055728,3.07894737 C6.02867883,3.07894737 5.77585139,2.82710754 5.77585139,2.51644737 C5.77585139,2.23685321 5.98064162,2.00490354 6.24895905,1.96130954 L6.34055728,1.95394737 L15.0588235,1.95394737 Z" id="形状结合"></path>
            </g>
        </g>
    </g>
</svg>