<svg class="icon" viewBox="0 0 1024 1024" version="1.1" xmlns="http://www.w3.org/2000/svg"
    width="48" height="48">
    <path
        d="M959.04 192.256h-35.84V958.72a64 64 0 0 1-63.936 63.872H160.64a63.872 63.872 0 0 1-63.872-63.872V192.256h-31.872a31.872 31.872 0 1 1 0-63.872h223.552V32.64c0-17.664 14.272-31.936 31.936-31.936h383.168c17.664 0 32 14.272 32 32v95.68h223.488a32 32 0 0 1 0 64z m-287.424-127.744h-319.36v63.872h319.36v-63.872z m191.68 191.616v-63.872H160.64v734.592a32 32 0 0 0 32 31.936h638.72a32 32 0 0 0 31.936-32V256.192z m-191.68 143.744h63.936v407.168h-63.936V399.872zM480.064 336H544v470.976h-63.872v-471.04z m-191.616 63.872h63.872v407.168h-63.872V399.872z"
        fill="#5A5A5A" />
</svg>