<svg class="icon" viewBox="0 0 1024 1024" version="1.1" xmlns="http://www.w3.org/2000/svg"
    width="48" height="48">
    <path
        d="M754.83 864H218.67c-32.34 0-58.67-26.31-58.67-58.67V269.17c0-32.36 26.33-58.67 58.67-58.67h268.07c16.21 0 29.33 13.13 29.33 29.33s-13.12 29.33-29.33 29.33H218.67v536.16h536.16V537.25c0-16.2 13.12-29.33 29.33-29.33s29.33 13.13 29.33 29.33v268.08c0.01 32.36-26.32 58.67-58.66 58.67z" />
    <path
        d="M409.65 643.67c-7.51 0-15.01-2.86-20.74-8.59-11.46-11.46-11.46-30.02 0-41.48l425.02-425c11.46-11.46 30.02-11.46 41.48 0s11.46 30.02 0 41.48l-425.02 425c-5.73 5.73-13.24 8.59-20.74 8.59z" />
</svg>