<svg height="16" viewBox="0 0 16 16" width="16" xmlns="http://www.w3.org/2000/svg"><g fill="none" fill-rule="evenodd"><path d="m0 0h16v16h-16z" fill="#fff" fill-opacity=".01" fill-rule="nonzero"/><g stroke="#666" stroke-linejoin="round"><path d="m8 14.6666667c3.6819 0 6.6666667-2.9847667 6.6666667-6.6666667s-2.9847667-6.66666667-6.6666667-6.66666667-6.66666667 2.98476667-6.66666667 6.66666667 2.98476667 6.6666667 6.66666667 6.6666667z"/><path d="m8 4c-2.20913333 0-4 1.79086667-4 4" stroke-linecap="round"/><path d="m8 12c2.2091333 0 4-1.7908667 4-4" stroke-linecap="round"/><path d="m8 9.33333333c.73636667 0 1.33333333-.59696666 1.33333333-1.33333333s-.59696666-1.33333333-1.33333333-1.33333333-1.33333333.59696666-1.33333333 1.33333333.59696666 1.33333333 1.33333333 1.33333333z"/></g></g></svg>