<?xml version="1.0" encoding="UTF-8"?>
<svg width="16px" height="14px" viewBox="0 0 16 14" version="1.1" xmlns="http://www.w3.org/2000/svg" xmlns:xlink="http://www.w3.org/1999/xlink">
    <title>编组</title>
    <g id="页面-1" stroke="none" stroke-width="1" fill="none" fill-rule="evenodd">
        <g id="歌库-播放详情页" transform="translate(-270.000000, -705.000000)" fill="#000000" fill-rule="nonzero">
            <g id="编组-8" transform="translate(248.000000, 682.000000)">
                <g id="编组" transform="translate(22.000000, 23.000000)">
                    <path d="M13.7695312,0 L14.5117188,0 C15.1157812,0 15.6054688,0.4896875 15.6054688,1.09375 L15.6054688,12.6757812 C15.6054688,13.2798437 15.1157812,13.7695312 14.5117188,13.7695312 L13.7695312,13.7695312 C13.1654688,13.7695312 12.6757812,13.2798437 12.6757812,12.6757812 L12.6757812,1.09375 C12.6757812,0.4896875 13.1654688,0 13.7695312,0 Z M10.4748828,7.54279297 L2.22675781,13.4685742 C1.59601563,13.9217188 0.71734375,13.7777539 0.264179687,13.1470117 C0.0923998405,12.9079069 -2.77555756e-16,12.6209176 -2.77555756e-16,12.3265039 L-2.77555756e-16,1.4075 C-2.77555756e-16,0.630859375 0.629589844,0.00125 1.40625,0.00125 C1.68397132,0.00125 1.95547472,0.0834819661 2.18652344,0.237578125 L10.4435937,5.74458984 C10.9461328,6.07974609 11.0818164,6.75884766 10.7466602,7.26138672 C10.6737161,7.37076 10.5816512,7.46608668 10.4748828,7.54279297 L10.4748828,7.54279297 Z" id="形状"></path>
                </g>
            </g>
        </g>
    </g>
</svg>