<svg height="14" viewBox="0 0 16 14" width="16" xmlns="http://www.w3.org/2000/svg"><path d="m13.7695312 0h.7421876c.6040624 0 1.09375.4896875 1.09375 1.09375v11.5820312c0 .6040625-.4896876 1.09375-1.09375 1.09375h-.7421876c-.6040624 0-1.09375-.4896875-1.09375-1.09375v-11.5820312c0-.6040625.4896876-1.09375 1.09375-1.09375zm-3.2946484 7.54279297-8.24812499 5.92578123c-.63074218.4531446-1.50941406.3091797-1.96257812-.3215625-.17177985-.2391048-.26417969-.5260941-.26417969-.8205078v-10.9190039c0-.77664062.62958984-1.40625 1.40625-1.40625.27772132 0 .54922472.08223197.78027344.23632813l8.25707026 5.50701171c.5025391.33515625.6382227 1.01425782.3030665 1.51679688-.0729441.10937328-.165009.20469996-.2717774.28140625z"/></svg>