<?xml version="1.0" encoding="UTF-8"?>
<svg width="16px" height="20px" viewBox="0 0 16 20" version="1.1" xmlns="http://www.w3.org/2000/svg" xmlns:xlink="http://www.w3.org/1999/xlink">
    <title>编组</title>
    <g id="页面-1" stroke="none" stroke-width="1" fill="none" fill-rule="evenodd">
        <g id="歌库-播放详情页" transform="translate(-183.000000, -703.000000)" fill="#000000" fill-rule="nonzero">
            <g id="编组" transform="translate(183.000000, 703.000000)">
                <path d="M8.8817842e-16,2.00005219 L0.00668610963,1.83623769 C0.0599787181,1.18573729 0.42871192,0.597762828 0.999937666,0.267962647 C1.61876556,-0.0893208823 2.38121335,-0.0893208823 3.00004124,0.267962647 C3.02384231,0.281704321 3.04729183,0.295894214 3.07038164,0.310518174 L3.0699838,0.310175099 L3.10425139,0.332450691 C3.1199797,0.342862033 3.13553389,0.353477814 3.15091126,0.364293344 L15.16992,8.3795882 C15.6675899,8.74515545 15.993883,9.33592215 15.9999156,9.99947038 C16.0060025,10.6811599 15.682337,11.2887528 15.1732561,11.6508601 L15.0999204,11.6993468 L3.10194247,19.668142 C2.781575,19.889759 2.40022656,20.0139892 1.99998944,19.9987431 C0.899995253,19.958746 0,19.0988086 0,17.9988886 L0,17.9988886 L8.8817842e-16,2.00005219 Z" id="形状结合"></path>
            </g>
        </g>
    </g>
</svg>