<svg height="24" viewBox="0 0 24 24" width="24" xmlns="http://www.w3.org/2000/svg">
    <g fill="none" fill-rule="evenodd">
        <path d="m0 0h24v24h-24z" />
        <path
            d="m0 2.00005219.00668611-.1638145c.05329261-.6505004.42202581-1.23847486.99325156-1.56827504.61882789-.35728353 1.38127568-.35728353 2.00010357 0 .02380107.01374167.04725059.02793156.0703404.04255552l-.00039784-.00034307.03426759.02227559c.01572831.01041134.0312825.02102712.04665987.03184265l12.01900874 8.01529486c.4976699.36556725.823963.95633395.8299956 1.61988218.0060869.68168952-.3175786 1.28928242-.8266595 1.65138972l-.0733357.0484867-11.99797793 7.9687952c-.32036747.221617-.70171591.3458472-1.10195303.3306011-1.09999419-.0399971-1.99998944-.8999345-1.99998944-1.9998545z"
            fill="#000" fill-rule="nonzero" transform="translate(5 2)" />
    </g>
</svg>