<?xml version="1.0" encoding="UTF-8"?>
<svg width="24px" height="24px" viewBox="0 0 24 24" version="1.1" xmlns="http://www.w3.org/2000/svg" xmlns:xlink="http://www.w3.org/1999/xlink">
    <title>编组 7</title>
    <g id="页面-1" stroke="none" stroke-width="1" fill="none" fill-rule="evenodd" stroke-linejoin="round">
        <g id="歌库-播放缩略图" transform="translate(-315.000000, -676.000000)" stroke="#333333" stroke-width="1.6">
            <g id="编组-7" transform="translate(315.000000, 676.000000)">
                <g id="编组" transform="translate(3.000000, 3.000000)">
                    <line x1="11.5" y1="0" x2="11.5" y2="14.5" id="路径" stroke-linecap="round"></line>
                    <path d="M4.5,15.02 C4.5,13.62825 5.62825,12.5 7.02,12.5 L11.5,12.5 L11.5,15.48 C11.5,16.87175 10.37175,18 8.98,18 L7.02,18 C5.62825,18 4.5,16.87175 4.5,15.48 L4.5,15.02 Z" id="路径"></path>
                    <polygon id="路径" stroke-linecap="round" points="11.5 4.0332 17.9417 5.56075 17.9417 1.506695 11.5 0"></polygon>
                    <line x1="0" y1="1" x2="7" y2="1" id="路径" stroke-linecap="round"></line>
                    <line x1="0" y1="5" x2="7" y2="5" id="路径" stroke-linecap="round"></line>
                    <line x1="0" y1="9" x2="5" y2="9" id="路径" stroke-linecap="round"></line>
                </g>
            </g>
        </g>
    </g>
</svg>