<svg class="icon" viewBox="0 0 1024 1024" version="1.1"
    xmlns="http://www.w3.org/2000/svg" width="48" height="48">
    <path
        d="M910.001131 462.105636c-50.550303-78.533634-113.946168-137.2622-190.178387-176.187745 20.315698 34.624589 30.472012 72.059176 30.472012 112.305809 0 61.540611-21.8701 114.200972-65.608254 157.982104-43.73713 43.781132-96.398514 65.650209-157.981081 65.606207-61.582567-0.041956-114.243951-21.910009-157.981081-65.606207-43.738154-43.695175-65.60723-96.356558-65.60723-157.982104 0-40.245609 10.158361-77.68122 30.470989-112.305809-76.190263 38.925544-139.583059 97.655134-190.178387 176.187745 44.249807 68.225871 99.719142 122.54808 166.414147 162.964582 66.692958 40.415478 138.985448 60.623729 216.879516 60.623729s150.187581-20.208251 216.880539-60.623729C810.280966 584.653717 865.752348 530.331507 910.001131 462.105636L910.001131 462.105636zM550.662043 270.458805c0-6.643304-2.321882-12.307304-6.962575-16.991999-4.641717-4.684696-10.30674-7.005554-16.991999-6.963599-41.608653 0-77.298504 14.885012-107.067504 44.654013-29.770024 29.769001-44.654013 65.457828-44.654013 107.066481 0 6.644327 2.320858 12.307304 6.963599 16.993023 4.64274 4.683672 10.30674 7.007601 16.991999 6.964622s12.349259-2.366907 16.991999-6.964622c4.641717-4.599761 6.963599-10.264784 6.963599-16.993023 0-28.619828 10.158361-53.064566 30.472012-73.337285s44.760436-30.429033 73.337285-30.472012c6.643304 0 12.308327-2.320858 16.991999-6.962575C548.385187 282.809087 550.705022 277.145088 550.662043 270.458805zM973.885114 462.105636c0 11.328-3.321652 22.805402-9.965979 34.431184-46.591131 76.531024-109.216447 137.837298-187.877995 183.9178-78.661547 46.079478-161.750941 69.121264-249.27125 69.12024-87.518263 0-170.609703-23.125697-249.269203-69.376067C198.841186 633.95047 136.214846 572.730153 89.623715 496.538867c-6.644327-11.626805-9.965979-23.104207-9.965979-34.432207s3.321652-22.805402 9.965979-34.432207c46.591131-76.191286 109.217471-137.411603 187.879018-183.661973 78.659501-46.251394 161.749918-69.376067 249.269203-69.376067s170.609703 23.125697 249.27125 69.376067c78.659501 46.25037 141.284817 107.470687 187.877995 183.661973C970.563462 439.300234 973.885114 450.777637 973.885114 462.105636z"
        fill="#666666"/>
</svg>