<svg height="16" viewBox="0 0 16 16" width="16" xmlns="http://www.w3.org/2000/svg"><g fill="none" fill-rule="evenodd"><path d="m0 0h16v16h-16z" fill="#fff" fill-opacity=".01" fill-rule="nonzero"/><g stroke="#666" stroke-linejoin="round"><path d="m10 11.5c0-.6443333.5223333-1.1666667 1.1666667-1.1666667h2.5v1.1333334c0 .6627333-.5372667 1.2-1.2 1.2h-1.3c-.6443334 0-1.1666667-.5223334-1.1666667-1.1666667z"/><path d="m2 12.8333333c0-.6443333.52233333-1.1666666 1.16666667-1.1666666h2.16666666v1.1333333c0 .6627333-.53726666 1.2-1.2 1.2h-.96666666c-.64433334 0-1.16666667-.5223333-1.16666667-1.1666667z"/><path d="m5.33333333 6.01466667 8.33333337-1.973" stroke-linecap="round"/><path d="m5.33333333 12.6666667v-9.33333337l8.33333337-2v9.89746667" stroke-linecap="round"/></g></g></svg>