<svg class="icon" viewBox="0 0 1024 1024" version="1.1" xmlns="http://www.w3.org/2000/svg"
    width="16" height="16">
    <path
        d="M512.487863 109.714286c159.780571 0 292.937143 113.846857 322.852571 264.850285A256.036571 256.036571 0 0 1 768.487863 877.714286h-73.142857a36.571429 36.571429 0 0 1 0-73.142857h73.142857a182.857143 182.857143 0 0 0 7.936-365.531429L768.487863 438.857143l-0.146286-8.777143a256 256 0 0 0-511.268571-8.777143l-0.438857 8.777143L256.487863 438.857143a182.857143 182.857143 0 0 0-7.936 365.531428L256.487863 804.571429h73.142857a36.571429 36.571429 0 0 1 0 73.142857H256.487863a256 256 0 0 1-66.889143-503.186286C219.514149 223.561143 352.707291 109.714286 512.487863 109.714286z"
        fill="#666666" />
    <path
        d="M475.916434 512m36.571429 0l0 0q36.571429 0 36.571428 36.571429l0 329.142857q0 36.571429-36.571428 36.571428l0 0q-36.571429 0-36.571429-36.571428l0-329.142857q0-36.571429 36.571429-36.571429Z"
        fill="#666666" />
    <path
        d="M642.097006 604.745143a36.571429 36.571429 0 0 1-51.712 0L512.780434 527.140571l-77.531428 77.604572A36.571429 36.571429 0 1 1 383.463863 552.96L486.887863 449.572571a36.571429 36.571429 0 0 1 51.748571 0L642.097006 552.96a36.571429 36.571429 0 0 1 0 51.748571z"
        fill="#666666" />
</svg>