<svg class="icon" viewBox="0 0 1024 1024" version="1.1" xmlns="http://www.w3.org/2000/svg"
    width="48" height="48">
    <path
        d="M240 480A48 48 0 1 1 288 432 48 48 0 0 1 240 480zM320 272a48 48 0 1 1 48 48A48 48 0 0 1 320 272z m192-32A48 48 0 1 1 560 288 48 48 0 0 1 512 240z m312.8-66.496A437.44 437.44 0 0 1 992 512.256C992 759.2 776.672 960 512 960a507.296 507.296 0 0 1-148.544-22.4 51.872 51.872 0 0 1-32.352-28.8 52.608 52.608 0 0 1 0.864-44.224l35.2-72.64a104.736 104.736 0 0 0-69.632-147.2 108.8 108.8 0 0 0-122.208 61.76 52.864 52.864 0 0 1-46.976 29.792 52.352 52.352 0 0 1-47.456-27.968A417.44 417.44 0 0 1 32 512.256C32 265.312 247.328 64.416 512 64.416A508.128 508.128 0 0 1 689.376 96a29.888 29.888 0 1 1-20.96 55.968A448 448 0 0 0 512 124.128c-231.584 0-420 174.112-420 388.128A357.376 357.376 0 0 0 128 668.608a168.672 168.672 0 0 1 184.48-81.472 164.992 164.992 0 0 1 109.696 90.016 163.008 163.008 0 0 1-0.832 140.96l-31.776 65.088a446.08 446.08 0 0 0 122.432 17.152c231.584 0 420-174.112 420-388.096a377.184 377.184 0 0 0-136.256-285.728l-165.728 302.56a28.608 28.608 0 0 1-25.056 15.136 27.712 27.712 0 0 1-14.24-3.936 30.656 30.656 0 0 1-10.784-40.896l171.552-313.184a29.184 29.184 0 0 1 2.848-27.328 29.76 29.76 0 0 1 18.848-12.256l36.8-67.2a28.16 28.16 0 0 1 39.296-11.2 30.656 30.656 0 0 1 10.784 40.896z"
        fill="#666666" />
</svg>