<svg height="48" viewBox="0 0 1024 1024" width="48" xmlns="http://www.w3.org/2000/svg">
    <path
        d="m1022.06544 583.40119c0 11.0558-4.034896 20.61962-12.111852 28.696576-8.077979 8.077979-17.639752 12.117992-28.690436 12.117992h-142.816707c0 72.690556-14.235213 134.320195-42.718941 184.89915l132.615367 133.26312c8.076956 8.065699 12.117992 17.634636 12.117992 28.690436 0 11.050684-4.034896 20.614503-12.117992 28.691459-7.653307 8.065699-17.209964 12.106736-28.690436 12.106736-11.475356 0-21.040199-4.041036-28.690436-12.106736l-126.244262-125.606743c-2.124384 2.118244-5.308913 4.88424-9.558703 8.283664-4.259 3.3984-13.180184 9.463536-26.78504 18.171871-13.598716 8.715499-27.415396 16.473183-41.439808 23.276123-14.029528 6.797823-31.462572 12.966313-52.289923 18.49319-20.827351 5.517667-41.446971 8.28571-61.842487 8.28571v-571.277058h-81.611739v571.277058c-21.668509 0-43.250036-2.874467-64.707744-8.615215-21.473057-5.734608-39.960107-12.749372-55.476499-21.039175-15.518438-8.289804-29.541827-16.572444-42.077328-24.867364-12.541641-8.290827-21.781072-15.193027-27.739784-20.714787l-9.558703-8.93244-116.679419 131.98501c-8.500605 8.921183-18.699897 13.386892-30.606065 13.386892-10.201339 0-19.335371-3.40454-27.409257-10.202363-8.079002-7.652284-12.437264-17.10968-13.080923-28.372188-.633427-11.263531 2.659573-21.143553 9.893324-29.647227l128.787178-144.727219c-24.650423-48.464805-36.980239-106.699114-36.980239-174.710091h-142.815683c-11.057847 0-20.61655-4.041036-28.690436-12.111852-8.079002-8.082072-12.120039-17.640776-12.120039-28.696576 0-11.050684 4.041036-20.61962 12.120039-28.689413 8.073886-8.072863 17.632589-12.107759 28.690436-12.107759h142.81466v-187.445135l-110.302175-110.302175c-8.074909-8.077979-12.113899-17.640776-12.113899-28.691459 0-11.04966 4.044106-20.61962 12.113899-28.690436 8.071839-8.076956 17.638729-12.123109 28.691459-12.123109 11.056823 0 20.612457 4.052293 28.692482 12.123109l110.302175 110.302175h538.128077l110.303198-110.302175c8.070816-8.076956 17.632589-12.123109 28.690436-12.123109 11.050684 0 20.617573 4.052293 28.689413 12.123109 8.077979 8.070816 12.119015 17.640776 12.119015 28.690436 0 11.050684-4.041036 20.614503-12.119015 28.691459l-110.302175 110.302175v187.448206h142.815683c11.0558 0 20.618597 4.034896 28.690436 12.113899 8.076956 8.069793 12.117992 17.638729 12.117992 28.683273zm-306.044278-367.243105h-408.052557c0-56.526411 19.871583-104.667851 59.616796-144.414087 39.733956-39.746236 87.88256-59.611679 144.411017-59.611679 56.529481 0 104.678084 19.865443 144.413064 59.611679 39.74726 39.745212 59.61168 87.887676 59.61168 144.414087z"
        fill="#666" />
</svg>