<svg height="16" viewBox="0 0 16 16" width="16" xmlns="http://www.w3.org/2000/svg"><g fill="none" fill-rule="evenodd"><path d="m0 0h16v16h-16z" fill="#fff" fill-opacity=".01" fill-rule="nonzero"/><path d="m8 14.6666667c1.84093333 0 3.5076-.7462 4.7140333-1.9526334 1.2064334-1.2064333 1.9526334-2.87309997 1.9526334-4.7140333s-.7462-3.5076-1.9526334-4.71404667c-1.2064333-1.20642666-2.87309997-1.95262-4.7140333-1.95262s-3.5076.74619334-4.71404667 1.95262c-1.20642666 1.20644667-1.95262 2.87311334-1.95262 4.71404667s.74619334 3.5076 1.95262 4.7140333c1.20644667 1.2064334 2.87311334 1.9526334 4.71404667 1.9526334z" stroke="#666" stroke-linejoin="round"/><path d="m8 12.3333333c.46023333 0 .83333333-.3731.83333333-.8333333s-.3731-.8333333-.83333333-.8333333-.83333333.3731-.83333333.8333333.3731.8333333.83333333.8333333z" fill="#666"/><path d="m8 4v5.333333" stroke="#666" stroke-linecap="round" stroke-linejoin="round"/></g></svg>