<svg id="Layer_4" data-name="Layer 4" xmlns="http://www.w3.org/2000/svg" viewBox="0 0 1024 512">
    <path
        d="M245.14,311.41q-7.63,1.48-8-.47a107.26,107.26,0,0,0-3.29-10.52,1.29,1.29,0,0,0-1.47-.94L203.06,305a80.6,80.6,0,0,0-9.25,2.15q-6,1.61-8.85-5.9t1.88-10.86a45.58,45.58,0,0,0,3.35-3.62l3.88-4.56q7.38-8.56,18.1-27.61c.18-.35,0-.49-.4-.4l-15.42,2.14q-9.24,1.35-12.19-6.16t3.21-13.67a72,72,0,0,0,5.5-6.3q.4-.54,6.16-11.8,6.84-13.27,7.38-15,3.34-9.65,11.39-6.57t4,12.47q-5,11.52-18.23,30.56c-.27.36-.18.53.27.53l14.34-.93a3.45,3.45,0,0,0,3.08-2,69.36,69.36,0,0,0,3.56-7.84c.75-2.09,3.82-2,9.18.34s6.39,6.52,3.35,12.6Q227.32,263,208,288c-.26.36-.18.49.27.4l19.17-2.82c.45-.08.58-.35.4-.8L226,280.59q-3.9-9.12,2.41-12.07t11,5.77q9.38,18.36,11,25.73Q252.65,310,245.14,311.41Zm20.91,3.76q-10.05-.54-9.51-8.31c.35-5.1,1.34-7.58,2.95-7.44s5.89.2,12.86.2c2.33,0,3.8-.4,4.43-1.21s1.4-1.76,2.34-2.88,1.9-7.44,2.88-19q1.35-16.21,2.28-54.82a.59.59,0,0,0-.67-.67H249q-10,0-10.05-7.64T249,205.79h41.42q10.05,0,9.78,10.05-.93,47.6-2.41,65.28-1.74,20.38-2.55,21.45c-2,2.68-3.37,4.64-4.22,5.9a8.66,8.66,0,0,1-2.81,2.74q-1.55.87-2.88,1.68a20.2,20.2,0,0,1-5.63,1.61A62.41,62.41,0,0,1,266.05,315.17Z"
        style="fill:#e4007f" />
    <path
        d="M338.3,316.91q-8.31,0-8.31-10.05V211.42q0-10,10.05-10h73q10.07,0,10.06,10v95.17q0,10.05-8.58,10.05T406,308.87a.59.59,0,0,0-.67-.67H347.15a.59.59,0,0,0-.67.67Q346.48,316.91,338.3,316.91Zm8.18-71.31a.59.59,0,0,0,.67.67h58.17a.59.59,0,0,0,.67-.67V218.12a.59.59,0,0,0-.67-.67H347.15a.59.59,0,0,0-.67.67Zm0,45.84a.59.59,0,0,0,.67.67h58.17a.59.59,0,0,0,.67-.67V262.76a.59.59,0,0,0-.67-.67H347.15a.59.59,0,0,0-.67.67Z"
        style="fill:#e4007f" />
    <path
        d="M615.29,228.85q3.88-9.39,11.39-6.17T630.17,235a80.11,80.11,0,0,1-5.5,9.38,11.13,11.13,0,0,0-1.88,6.3v57.78q0,10-7.77,10t-7.91-10V268.92c0-.44-.13-.49-.4-.13l-2.15,2q-7.09,7.38-12.73,1.07t2.28-12.73q1.33-1.06,10.12-12.87T615.29,228.85Zm-14.48-7.38q-10,0-10-7.5t10-7.37h42c.44,0,.58-.18.4-.54q-3.9-7.91,3-11.53t11.66,5.23l2.81,5.09a3.12,3.12,0,0,0,2.95,1.75h36.33q10.05,0,10,7.37t-10,7.5ZM653,228.85q3.62-9.53,11.13-6.3,7.5,3.07,4.29,10c-.18.45,0,.67.4.67l22.52-.4A26.48,26.48,0,0,1,702.81,235q5.1,2.42,2.69,11.53-5.64,22.11-24.13,42.22a.59.59,0,0,0,.13.94q13.95,9.92,19.3,11.39,9.8,2.69,7.38,10.59t-12.07,4.69q-11.39-3.75-25.73-15.41a1.29,1.29,0,0,0-1.88,0q-13.8,11-24.93,15-9.52,3.48-12.06-3.89t7-10.58q6.16-2,19.3-11.8a.6.6,0,0,0,.13-.94,114.17,114.17,0,0,1-13.8-19.84c-.18-.35-.41-.35-.67,0a78.39,78.39,0,0,1-6.3,6q-2.42,1.94-7.11-4.22t3.22-12.2q1.2-.95,9.92-13.4Q651.21,233.54,653,228.85ZM668.9,279q.4.54.81,0a81.65,81.65,0,0,0,18.9-31.1c.17-.45,0-.67-.41-.67H662.47a4.22,4.22,0,0,0-3.62,1.88l-4.29,6.56a3.36,3.36,0,0,0-.27,3.62A77.44,77.44,0,0,0,668.9,279Zm5.9-12.87q-4.69,4-10.45-3.08t-1.61-11q3.88-4,10.32,2.94T674.8,266.11Z"
        style="fill:#e4007f" />
    <path
        d="M752.68,317.18q-10,0-9.92-7.91t4.55-7.51a66.57,66.57,0,0,0,7.11.14c3.48-.18,5.54-.27,6.16-.27a2.56,2.56,0,0,0,1.75-.74,3.46,3.46,0,0,0,.8-2.61V274.82c0-.44-.18-.58-.53-.4L735.92,289.3q-9,4.95-12.46-2.15T729,275.63l32.44-16.09a3.12,3.12,0,0,0,1.74-3V216.25a.59.59,0,0,0-.67-.67H735.65q-10,0-10-7.64t10-7.64H768.9q10.05,0,10.05,10v88.06q0,6.84-1.68,10.39a11.23,11.23,0,0,1-5.83,5.43Q765.14,317.17,752.68,317.18Zm-3.49-65.41q-6.71,4.15-9.25-.2a83.2,83.2,0,0,0-7.37-10.26q-6.3-7.63-.8-12.33T744,231.66q5.64,6.17,6.57,7.51Q755.9,247.75,749.19,251.77Zm63,65.68q-9.53.12-9.38-7.91t4.62-7.78c3,.18,5.7.23,8.11.14,3.49-.18,5.83-.27,7-.27s1.81-1.16,1.81-3.49V272.41c0-.45-.18-.58-.54-.4l-25.2,14.47q-9,5.1-12.6-2.28t5.23-11.79l31.37-15.55a2.76,2.76,0,0,0,1.74-2.68V216.25a.59.59,0,0,0-.67-.67H795.3q-10,0-10-7.64t10-7.64h35.39q10,0,10,10v88.06q0,7-1.74,10.59a12,12,0,0,1-6.17,5.63,19.58,19.58,0,0,1-5.9,2c-3.48.36-7,.58-10.45.67Zm-2.28-66.89q-6.7,4.29-12.06-4.29-.27-.53-4.83-5.63-6.71-7.5-1.47-12.33t12.33,2.28q6.3,6.57,6.84,7.24Q816.48,246.14,809.91,250.56Z"
        style="fill:#e4007f" />
    <path
        d="M512,255.57l-37.07,15a40,40,0,1,1,67.59,10.85,40.93,40.93,0,0,1-15.39,11.16,46.88,46.88,0,0,1-24.42,3.5"
        style="fill:none;stroke:#1b1464;stroke-linecap:round;stroke-linejoin:round;stroke-width:18px" />
</svg>