<svg id="Layer_1" data-name="Layer 1" xmlns="http://www.w3.org/2000/svg" viewBox="0 0 1024 512">
    <path
        d="M265.71,312.6a9.62,9.62,0,0,1-8.6-5.31l-39.48-79L178.24,306a9.61,9.61,0,0,1-17.14-8.69l48-94.72a9.61,9.61,0,0,1,8.57-5.26h0a9.59,9.59,0,0,1,8.56,5.31l48,96a9.61,9.61,0,0,1-8.58,13.9Z"
        style="fill:#f15a24" />
    <path
        d="M702.49,312.6a9.61,9.61,0,0,1-8.6-5.31l-25.08-50.16-25,49.29a9.6,9.6,0,0,1-17.13-8.68l33.61-66.31a9.61,9.61,0,0,1,8.57-5.26h0a9.61,9.61,0,0,1,8.57,5.31l33.61,67.22a9.62,9.62,0,0,1-8.58,13.9Z"
        style="fill:#e4007f" />
    <path
        d="M355.51,312.59a9.89,9.89,0,0,1-1.54-.12H304.21a9.8,9.8,0,0,1-1.54.12,9.59,9.59,0,0,1-9.6-9.6V235.77a9.6,9.6,0,1,1,19.2,0v57.5h43.39a9.6,9.6,0,0,1,5.88,17.19l-.15.12A9.56,9.56,0,0,1,355.51,312.59Z"
        style="fill:#e4007f" />
    <path
        d="M437.31,312.59a10,10,0,0,1-1.54-.12H386a9.8,9.8,0,0,1-1.54.12,9.6,9.6,0,0,1-9.6-9.6V235.77a9.6,9.6,0,1,1,19.2,0v57.5h43.39a9.6,9.6,0,0,1,5.89,17.19l-.16.12A9.54,9.54,0,0,1,437.31,312.59Z"
        style="fill:#e4007f" />
    <path
        d="M587.48,312.59a9.6,9.6,0,0,1-9.6-9.6V237.6a9.61,9.61,0,1,1,19.21,0V303A9.6,9.6,0,0,1,587.48,312.59Z"
        style="fill:#e4007f" />
    <path
        d="M614.14,245.5a8.81,8.81,0,0,1-1.54-.13H562.69a9.8,9.8,0,0,1-1.54.13,9.61,9.61,0,0,1-9.61-9.61v-.12a9.6,9.6,0,0,1,9.61-9.6h53.14a9.6,9.6,0,0,1,5.86,17.21l-.16.12A9.55,9.55,0,0,1,614.14,245.5Z"
        style="fill:#e4007f" />
    <path
        d="M249.4,294.5a14.67,14.67,0,0,1-2-.13H182.94a16.22,16.22,0,0,1-2,.13c-6.85,0-12.41-4.3-12.41-9.61v-.12c0-5.3,5.56-9.6,12.41-9.6h68.64c5.31,0,10,2.61,11.75,6.5s0,8.2-4.17,10.71l-.21.12A14.8,14.8,0,0,1,249.4,294.5Z"
        style="fill:#f15a24" />
    <path
        d="M500.36,314.64c-12.75,0-25.77-4-35.34-11.61a10.22,10.22,0,0,1-1.77-14,9.36,9.36,0,0,1,13.46-1.84c10.19,8.11,27.77,10,39.18,4.11,7.9-4,7.9-9.38,7.9-11.13,0-5.38-11.74-9.43-22.11-13-16.48-5.69-37-12.77-38.44-33.88-1-14.79,6.48-27.49,20.06-34C501,190.94,523.63,195,537.23,209a10.23,10.23,0,0,1,0,14.1,9.37,9.37,0,0,1-13.58.05c-8.78-9.06-23.37-10-32.39-5.72-6.36,3-9.36,7.87-8.91,14.41.5,7.26,10.82,11.37,25.34,16.38,15.71,5.42,35.26,12.17,35.26,31.93,0,12.38-6.78,22.95-18.61,29A53,53,0,0,1,500.36,314.64Z"
        style="fill:#f15a24" />
    <path
        d="M815.25,312.57c-9.58,0-19.35-2.89-26.53-8.4a9.6,9.6,0,0,1,11.68-15.24c6.89,5.28,18.18,5.55,24.4,2.48,3.93-1.94,3.93-4.11,3.93-4.93h0c-1.28-2-9.22-4.6-13.51-6-11.7-3.89-27.72-9.22-28.87-25.37-.8-11.23,5.07-20.85,15.71-25.73,13.4-6.15,30.64-3.16,41,7.11a9.61,9.61,0,1,1-13.54,13.63c-5.26-5.22-14-5.77-19.44-3.28-4.9,2.25-4.65,5.62-4.56,6.9.24,3.35,9.21,6.33,15.77,8.52,11.25,3.74,26.66,8.86,26.66,24.26,0,9.49-5.34,17.56-14.64,22.15A41.12,41.12,0,0,1,815.25,312.57Z"
        style="fill:#e4007f" />
    <path
        d="M735,312.59a9.6,9.6,0,0,1-9.61-9.6V267a9.61,9.61,0,1,1,19.21,0V303A9.6,9.6,0,0,1,735,312.59Z"
        style="fill:#e4007f" />
    <path
        d="M735,276.64a9.6,9.6,0,0,1-9.61-9.6,40.92,40.92,0,0,1,40.87-40.87,9.6,9.6,0,1,1,0,19.2A21.69,21.69,0,0,0,744.57,267,9.6,9.6,0,0,1,735,276.64Z"
        style="fill:#e4007f" />
</svg>