<svg id="Layer_1" data-name="Layer 1" xmlns="http://www.w3.org/2000/svg" viewBox="0 0 1024 512">
    <path
        d="M158.59,233.92q-9,0-9-4.44,0-.6-.6-.36-4.92,1.56-5.76-3.36a.54.54,0,0,0-.72-.48L108.43,231q-8.88,1.56-10-5.4t7.92-8L118.27,216a1,1,0,0,0,1-1.08V195.88a.53.53,0,0,0-.6-.6h-5.52a.53.53,0,0,0-.6.6q0,4.08-5.64,4.08t-5.76-9v-32.4q0-9,9-9h8.64a.53.53,0,0,0,.6-.6V137.44q0-9,6.36-9t6.36,9V149a.53.53,0,0,0,.6.6h8q9,0,9,9v27.72q0,9-9,9h-8.16a.53.53,0,0,0-.6.6V213.4q0,.6.6.48l7-.84a.54.54,0,0,0,.48-.72l-.24-.6q-2.64-8.52,2.76-10.32t8.4,6.6q.48,1.32,2.88,11a1.34,1.34,0,0,0,1.44,1.2h16.32a.53.53,0,0,0,.6-.6v-67.2a.53.53,0,0,0-.6-.6H161q-9,0-9-6.84t9-6.84h36.84q9,0,9,6.84t-9,6.84h-10a.53.53,0,0,0-.6.6v67.2a.53.53,0,0,0,.6.6h12.36q9,0,9,6.84t-9,6.84ZM112.51,183a.53.53,0,0,0,.6.6H120a.53.53,0,0,0,.6-.6V161.8a.53.53,0,0,0-.6-.6h-6.84a.53.53,0,0,0-.6.6Zm18.24,0a.53.53,0,0,0,.6.6H138a.53.53,0,0,0,.6-.6V161.8a.53.53,0,0,0-.6-.6h-6.6a.53.53,0,0,0-.6.6Z"
        style="fill:#f7931e" />
    <path
        d="M228.31,218.2q-6.6,0-6.6-9V148.84q0-9,9-9h18.6q9,0,9,9v50.52q0,9-9,9H235.39a.53.53,0,0,0-.6.6Q234.79,218.2,228.31,218.2Zm6.48-23.64a.53.53,0,0,0,.6.6h8.88a.53.53,0,0,0,.6-.6v-41a.53.53,0,0,0-.6-.6h-8.88a.53.53,0,0,0-.6.6Zm91.08,39.6q-3,7-11.16,3-11.28-5.4-20.52-25.92-.24-.6-.48-.12a54.54,54.54,0,0,1-28.32,26.16q-8.4,3.48-10.92-3t6-9.48q18.6-7,23.4-28.68.12-.6-.48-.6h-14q-9,0-9-6.84t9-6.72h15.24a.53.53,0,0,0,.6-.6V167a.53.53,0,0,0-.6-.6h-13.8q-9,0-9-6.72t9-6.72h47q9,0,9,6.72t-9,6.72h-17.4a.53.53,0,0,0-.6.6v14.4a.53.53,0,0,0,.6.6h19.2q9,0,9,6.72t-9,6.84h-17.4q-.6,0-.36.6,8.4,24,18.48,27.84Q328.87,227.2,325.87,234.16ZM280,152.32q-6.6,1.92-9.36-6.6a12.27,12.27,0,0,0-1.32-3.12q-5-7.44.36-11.16t10.56,3.6q3.48,4.92,4,6.6Q286.75,150.28,280,152.32Zm35.64-4.44q-5,7.32-10.2,4t-.6-10.92a17.66,17.66,0,0,0,1.68-4q2.88-8.88,10-5.64T319,142.48A61.69,61.69,0,0,1,315.67,147.88Z"
        style="fill:#f7931e" />
    <path
        d="M375.19,239.44q-8.16.24-8-6.72t4.5-6.6q4.5.24,6.54.12,4.68-.24,5.58-.24a2.58,2.58,0,0,0,1.56-.48,1.94,1.94,0,0,0,.66-1.68v-14.4a.53.53,0,0,0-.6-.6H349.27q-9,0-9-6.6t9-6.6h36.12a.53.53,0,0,0,.6-.6q0-6.84,3.06-8a78.31,78.31,0,0,0,10-5.4q.48-.36-.12-.36h-28.2q-9,0-9-6.24t8.88-6.36l44-1.2q7.56-.12,10,4.2t-3.6,10q-4.56,4.08-18.84,11a2.47,2.47,0,0,0-1.56,2.4.53.53,0,0,0,.6.6h37q9,0,9,6.6t-9,6.6h-37a.53.53,0,0,0-.6.6V224.2q0,5.64-1.62,8.58a10.13,10.13,0,0,1-5.64,4.44,25.87,25.87,0,0,1-5.46,1.62q-4.68.36-9.36.48Zm-26.64-66.12q-6.72,0-6.72-9V156q0-9,9-9h8.76q.6,0,.36-.48a58.61,58.61,0,0,0-4.86-7.74q-2.34-3.06,2.58-7.14t10.8,2.52a27.76,27.76,0,0,1,5,7.26q1.5,3.42-2.46,5.34-.6.24,0,.24h40.32a3.78,3.78,0,0,0,3.24-1.68q5.28-7.92,5.76-8.88,3.84-8.52,10.2-4.8t.84,11.28l-2.64,3.6q-.36.48.24.48h7.92q9,0,9,9v8.28q0,9-7,9t-7.08-9v-4.08a.53.53,0,0,0-.6-.6H355.87a.53.53,0,0,0-.6.6v4.08Q355.27,173.32,348.55,173.32Zm49.32-26q-7.2,2.52-10.44-5.88l-.72-1.92q-3-8,2.28-11t10.44,4a25.7,25.7,0,0,1,2.76,3.84Q404.95,144.76,397.87,147.28Z"
        style="fill:#f7931e" />
    <path
        d="M469.63,240q-7.08,0-7.08-9v-88.8q0-9,9-9h84.36q9,0,9,9V231q0,9-7.44,9T550,235.72a.53.53,0,0,0-.6-.6H477.31a.53.53,0,0,0-.6.6Q476.71,240,469.63,240Zm7.08-18.84a.53.53,0,0,0,.6.6h72.12a.53.53,0,0,0,.6-.6v-74a.53.53,0,0,0-.6-.6H477.31a.53.53,0,0,0-.6.6Zm14.64-3.48q-8.52,3.24-10.56-2.64t1.8-7.14q4-1.38,8-7.26,3.48-5.16,4.44-14.52a.53.53,0,0,0-.6-.6H489q-9,0-9-5.88t9-5.76h48.48q9,0,9,5.76t-9,5.88h-8.64a.53.53,0,0,0-.6.6v16.68a8.23,8.23,0,0,0,.3,2.88q.3.6,1.62.6h4.56q1.44,0,1.92-2a20.82,20.82,0,0,0,.54-4.38q.06-2.4,5.46-2t4.8,9.24a13.66,13.66,0,0,1-2.88,6.66q-2.64,3.66-8.4,3.66H528q-7.32,0-9.72-3.06T515.83,203v-16.8a.53.53,0,0,0-.6-.6h-6.6a.87.87,0,0,0-1,.84q-1.08,13-5.64,20.52Q496.63,215.68,491.35,217.72Zm3.72-52.2q-9,0-9-5.64t9-5.52h37q9,0,9,5.52t-9,5.64Z"
        style="fill:#f7931e" />
    <path
        d="M135.19,383.44q-8.16.24-8-6.72t4.5-6.6q4.5.24,6.54.12,4.68-.24,5.58-.24a2.58,2.58,0,0,0,1.56-.48,1.94,1.94,0,0,0,.66-1.68v-14.4a.53.53,0,0,0-.6-.6H109.27q-9,0-9-6.6t9-6.6h36.12a.53.53,0,0,0,.6-.6q0-6.84,3.06-8a78.31,78.31,0,0,0,10-5.4q.48-.36-.12-.36h-28.2q-9,0-9-6.24t8.88-6.36l44-1.2q7.56-.12,10,4.2t-3.6,10q-4.56,4.08-18.84,11a2.47,2.47,0,0,0-1.56,2.4.53.53,0,0,0,.6.6h37q9,0,9,6.6t-9,6.6h-37a.53.53,0,0,0-.6.6V368.2q0,5.64-1.62,8.58a10.13,10.13,0,0,1-5.64,4.44,25.87,25.87,0,0,1-5.46,1.62q-4.68.36-9.36.48Z"
        style="fill:#e4007f" />
    <path
        d="M108.55,317.32q-6.72,0-6.72-9V300q0-9,9-9h8.76q.6,0,.36-.48a58.61,58.61,0,0,0-4.86-7.74q-2.34-3.06,2.58-7.14t10.8,2.52a27.76,27.76,0,0,1,5,7.26c1,2.28.18,4.07-2.46,5.34q-.6.24,0,.24h40.32a3.78,3.78,0,0,0,3.24-1.68q5.28-7.92,5.76-8.88,3.84-8.52,10.2-4.8t.84,11.28l-2.64,3.6q-.36.48.24.48h7.92q9,0,9,9v8.28q0,9-7,9t-7.08-9v-4.08a.53.53,0,0,0-.6-.6H115.87a.53.53,0,0,0-.6.6v4.08Q115.27,317.32,108.55,317.32Z"
        style="fill:#e4007f" />
    <path
        d="M157.87,291.28q-7.2,2.52-10.44-5.88l-.72-1.92q-3-8,2.28-11t10.44,4a25.7,25.7,0,0,1,2.76,3.84Q165,288.76,157.87,291.28Z"
        style="fill:#f7931e" />
    <path
        d="M229.63,384q-7.08,0-7.08-9v-88.8q0-9,9-9h84.36q9,0,9,9V375q0,9-7.44,9T310,379.72a.53.53,0,0,0-.6-.6H237.31a.53.53,0,0,0-.6.6Q236.71,384,229.63,384Zm7.08-18.84a.53.53,0,0,0,.6.6h72.12a.53.53,0,0,0,.6-.6v-74a.53.53,0,0,0-.6-.6H237.31a.53.53,0,0,0-.6.6Zm18.36-55.68q-9,0-9-5.64t9-5.52h37q9,0,9,5.52t-9,5.64Z"
        style="fill:#e4007f" />
    <path
        d="M357.55,384q-6.84,0-6.84-9V324.4q0-.6-.36-.12-4.68,5.52-10.44.24t.6-11.76q3.48-3.48,10.68-15.54t8.64-16.38q2.88-8.52,9.6-6.12t3.36,10.8A126.61,126.61,0,0,1,366,299.68a12.66,12.66,0,0,0-1.56,6.12V375Q364.39,384,357.55,384Z"
        style="fill:#f7931e" />
    <path
        d="M429.67,384.4q-9-.12-8.88-6t9-5.64h3.12q1.2,0,1.2-1.92V343.12a.53.53,0,0,0-.6-.6h-16.8a.53.53,0,0,0-.6.6v10.32q0,.6.6.48l4.8-.48q.6-.12.36-.72-2.28-5,1.56-7t5.82,1.8a71.83,71.83,0,0,1,4.14,10q2.88,8.64-1.68,10t-5.88-3.12q-.12-.6-1-.48l-26.28,3.72q-9,1.32-9.72-4.8t8.28-6.84l5.64-.48a.87.87,0,0,0,.84-1v-11.4a.53.53,0,0,0-.6-.6H386.35a.53.53,0,0,0-.6.6v32q0,9-6.72,9t-6.72-9V339.64q0-9,9-9H403a.53.53,0,0,0,.6-.6v-5.88a.53.53,0,0,0-.6-.6H387.19q-9,0-9-9V286.24q0-9,9-9h46.56q9,0,9,9v28.32q0,9-9,9h-17a.53.53,0,0,0-.6.6V330a.53.53,0,0,0,.6.6h21.6q9,0,9,9V371a18,18,0,0,1-1.2,7.38,8.35,8.35,0,0,1-4.44,4A29,29,0,0,1,429.67,384.4Zm-38.28-89.52a.53.53,0,0,0,.6.6h11a.53.53,0,0,0,.6-.6v-6.36a.53.53,0,0,0-.6-.6H392a.53.53,0,0,0-.6.6Zm0,17.4a.53.53,0,0,0,.6.6h11a.53.53,0,0,0,.6-.6v-6.36a.53.53,0,0,0-.6-.6H392a.53.53,0,0,0-.6.6Zm24.72-17.4a.53.53,0,0,0,.6.6h11.64a.53.53,0,0,0,.6-.6v-6.36a.53.53,0,0,0-.6-.6H416.71a.53.53,0,0,0-.6.6Zm0,17.4a.53.53,0,0,0,.6.6h11.64a.53.53,0,0,0,.6-.6v-6.36a.53.53,0,0,0-.6-.6H416.71a.53.53,0,0,0-.6.6Z"
        style="fill:#e4007f" />
    <path
        d="M484.51,301.24s7.12-14.12,7.68-15.72q2.88-8.52-3.72-10.8T479,281q-1.44,4.2-8.4,16.2t-10.44,15.6q-6.24,6.72-.36,11.76t10.2-.12q.36-.48.36.12v50.4q0,9,6.84,9t6.84-9l.12-72.48A4.34,4.34,0,0,1,484.51,301.24Z"
        style="fill:#e4007f" />
    <path
        d="M562.27,361.36q-2.64-1.56-7.8-17.52a1,1,0,0,1,.6-1.44l.48-.24q8-4.44,4.8-9.72t-10.8.12q-1.44,1.08-13,7.32a.47.47,0,0,1-.72-.24,38.25,38.25,0,0,0-9.24-11.88.53.53,0,0,1-.12-.84,5.17,5.17,0,0,1,4-1.68h23q9,0,9-9V306.4q0-9-9-9H541.39q-.6,0-.24-.48l3.48-4.68c3.2-4.4-23.76-11.64-23.76-11.64-.39,0-24.36,27.94-24.36,28.32v7.32q0,9,9,9h5.28q.6,0,0,.24l-13.08,6.24q-7.8,3.6-6.36,8.52c1,3.29,4.32,4.08,10.08,2.4a54.14,54.14,0,0,0,15.84-7.92.9.9,0,0,1,1.32.24l1.56,1.68a.53.53,0,0,1-.12.84A53.67,53.67,0,0,1,510,344q-4,1.8-8,3.36l-2.4,1.08q-8.28,3.24-6.6,8.28t10.2,1.8q9.36-3.48,21.72-13.32.48-.36.72.24l.72,2a2.13,2.13,0,0,1-.48,2.52q-5.64,5-28.08,15-7.92,3.48-6.12,9.24t10.32,2.64q10.8-3.72,26.4-15.84.48-.36.48.24,0,6.12-1.08,7.38a16.39,16.39,0,0,0-1.8,2.52,2.6,2.6,0,0,1-2.46,1.26h-2.34q-4.8-.36-5.4,5.52t2.34,6.18a29,29,0,0,0,4.74.18q1.92-.12,6.36-.24a6,6,0,0,0,4.56-1.8q2.76-3.36,5.76-6.48.6-.72,1.62-9.12A43.61,43.61,0,0,0,540,350.08a.91.91,0,0,1,.6-1.2l2.64-1.08q.6-.24.72.36,5.88,20.05,11.16,24,7.44,5.4,11.28-.36T562.27,361.36Zm-27.84-46.92a37.21,37.21,0,0,0,1.44-5.88,1,1,0,0,1,1.08-1h11.88a.53.53,0,0,1,.6.6v6.24a.53.53,0,0,1-.6.6h-14Q534.19,315,534.43,314.44Zm-10.08-6.24a15.48,15.48,0,0,1-2,5.16,3.49,3.49,0,0,1-3.12,1.68h-9.6a.53.53,0,0,1-.6-.6V308.2a.53.53,0,0,1,.6-.6h14.28Q524.47,307.6,524.35,308.2Zm-.72-10.8H508.39q-.6,0-.24-.48l3.48-4.08a4.55,4.55,0,0,1,3.72-1.8h14.88q.6,0,.24.48l-3.24,4.08A4.23,4.23,0,0,1,523.63,297.4Z"
        style="fill:#e4007f" />
    <path
        d="M662.35,384q-7.32.36-7.32-6.72t3.66-6.84q3.54.24,4.38.24,4.56-.36,6-.42t1.44-2.7V291.88a.53.53,0,0,0-.6-.6h-72.6a.53.53,0,0,0-.6.6v83.28q0,9-7,9t-7-9V286.72q0-9,9-9h83.76q9,0,9,9v81a22.73,22.73,0,0,1-1.38,8.82,10,10,0,0,1-4.68,4.92,22.47,22.47,0,0,1-4,1.86q-4.68.48-9.36.6Z"
        style="fill:#e4007f" />
    <path d="M612.55,311.68c-6,0-9-2-9-6s3-6,9-6h41.88q9,0,9,6c0,4-3,6-9,6Z" style="fill:#f7931e" />
    <path
        d="M615.79,368.92q-6.6,0-6.6-9v-30q0-9,9-9H649q9,0,9,9V352q0,9-9,9H623a.53.53,0,0,0-.6.6Q622.39,368.92,615.79,368.92Zm6.6-20.28a.53.53,0,0,0,.6.6h21.24a.53.53,0,0,0,.6-.6V333.28a.53.53,0,0,0-.6-.6H623a.53.53,0,0,0-.6.6Z"
        style="fill:#e4007f" />
    <path
        d="M800.59,321.4h-14.4a.53.53,0,0,1-.6-.6v-5.88c0-.1,0-1.69,0-1.8l-14.73,1.5a16.3,16.3,0,0,0-.18,2.34v3.84a.53.53,0,0,1-.6.6H754.39q-9,0-9,6.72t9,6.84h15.72a.53.53,0,0,1,.6.6v32.88a2.36,2.36,0,0,1-.54,1.8,3.29,3.29,0,0,1-2.1.48h-3.48q-9-.12-9.12,6.6t9,7q8.64.12,10.32-.6,4.2-1.8,6.06-2.64a7.51,7.51,0,0,0,3.3-3.78q1.44-2.94,1.44-8.58V335.56a.53.53,0,0,1,.6-.6h14.4q9,0,9-6.84T800.59,321.4Z"
        style="fill:#e4007f" />
    <path
        d="M736.27,350a1.54,1.54,0,0,1-.36-2A126.36,126.36,0,0,0,746.35,306q.72-8.64-3.6-9.6a41.42,41.42,0,0,0-9.6-.84l-10,.24q-.6,0-.48-.6L724.63,283q1.44-9-5.52-10t-8,8.16c-.16,1.84-.88,6.41-2.16,13.68-.08.65-.48,1-1.2,1h-1q-9,0-9,6.48t7.92,6.6q.6,0,.48.6-3.24,15.84-4.68,20.16-2.4,7.68,4.08,12.48,1.8,1.32,11.4,9.84a1,1,0,0,1,.24,1.44Q709,366,705.07,368.08q-8,4.08-4.68,10.2T711.55,380q7.32-4.32,16.2-17.16.36-.48.84,0a98.7,98.7,0,0,1,8,8.58q1.2,1.74,7.2-2.58t.48-11.64Q744,356.8,736.27,350Zm-4.2-40.44a108.08,108.08,0,0,1-7.56,29.64q-.24.6-.72.24l-8-6.24a2.32,2.32,0,0,1-.84-2.52q2.88-10.32,4.8-20.64a1.23,1.23,0,0,1,1.32-1.08h10.56Q732.19,308.92,732.07,309.52Z"
        style="fill:#e4007f" />
    <path
        d="M833.71,319.48q-8.16,4.2-11.16-3T828,306q6.48-2.52,21.6-12.84t19-15.48q5.4-7.32,10.92-3t3,7.56a.66.66,0,0,0,.12,1,131.69,131.69,0,0,0,21.36,14.28q13.56,7.44,15,7.92,8.76,2.76,6.12,9.84t-10.92,3.84a69,69,0,0,1-9.66-5.16q-6.06-3.72-14.16-9a116.13,116.13,0,0,1-16-12.72.6.6,0,0,0-1,0,141.86,141.86,0,0,1-19.08,15.6q-.48.36.12.36h38.4q9,0,9,6.48t-9,6.6h-38q-9,0-9-7.32,0-.6-.48-.36Zm84.6,60.6q-6.48,3.6-7.38,1.86a46.76,46.76,0,0,0-3.54-5.34,3.58,3.58,0,0,0-3.24-1.44l-52.2,4q-4.32.36-8.52,1.08l-1.8.24q-8.52,1.44-10.68-5.76t4.8-11.76q1.8-1.2,5.28-3.84,2.4-1.8,12-13.44.36-.48-.24-.48H833.35q-9,0-9-7t9-6.84h81.24q9,0,9,6.84t-9,7H875.47a4.55,4.55,0,0,0-3.72,1.8,157.14,157.14,0,0,1-16.92,17.64q-.48.36.12.36l40.56-2.4q.6,0,.24-.48l-2.4-2.4q-6.12-6.36-1.68-11t11.16,1.08a141.23,141.23,0,0,1,10.56,11.34q7.44,8.58,9.48,12T918.31,380.08Z"
        style="fill:#e4007f" />
    <path
        d="M287.79,329.12V347a8.15,8.15,0,0,0,.3,2.88c.2.41.74.61,1.62.61h4.56c1,0,1.6-.67,1.92-2a20.74,20.74,0,0,0,.54-4.38c0-1.59,1.86-2.28,5.46-2s5.28,3.24,4.8,9.24a13.68,13.68,0,0,1-2.88,6.67q-2.64,3.66-8.4,3.65h-8.16q-7.32,0-9.72-3.06c-1.6-2-2.4-5.85-2.4-11.46v-18Z"
        style="fill:#f7931e" />
    <path
        d="M251,361.92q-8.52,3.24-10.56-2.64c-1.44-3.84-.84-6.21,1.8-7.14s5.32-3.33,8-7.26q3.48-5.14,4.44-14.52a.53.53,0,0,0-.6-.6h-5.52c-6,0-9-1.95-9-5.88s3-5.76,9-5.76H297q9,0,9,5.76c0,3.93-3,5.88-9,5.88h-28.8a.88.88,0,0,0-1,.85q-1.08,12.94-5.64,20.51Q256.23,359.88,251,361.92Z"
        style="fill:#e4007f" />
    <path d="M514.05,278.62c.5.5-12,21-23,26"
        style="fill:none;stroke:#f7931e;stroke-linecap:round;stroke-miterlimit:10;stroke-width:12px" />
    <path d="M528.05,302.62c7.5-6.5,14-17,13.5-17.5s-30,.74-30,.74"
        style="fill:none;stroke:#f7931e;stroke-linecap:round;stroke-miterlimit:10;stroke-width:12px" />
    <path d="M755.55,285.12h44c0,6.16-20.8,28-23.5,29.5"
        style="fill:none;stroke:#f7931e;stroke-linecap:round;stroke-linejoin:round;stroke-width:13px" />
    <path d="M854.11,321.32c-6,0-9-2.19-9-6.6s3-6.6,9-6.6H896q9,0,9,6.6c0,4.41-3,6.6-9,6.6Z"
        style="fill:#f7931e" />
</svg>