<svg id="Layer_2" data-name="Layer 2" xmlns="http://www.w3.org/2000/svg" viewBox="0 0 1024 512">
    <path d="M302.78,228H248.72a9.32,9.32,0,1,1,0-18.63h54.06a9.32,9.32,0,1,1,0,18.63Z"
        style="fill:#e4007f" />
    <path
        d="M261.06,312a9.32,9.32,0,1,1,0-18.63c14.71,0,25.82-5.82,33-17.31a56.11,56.11,0,0,0,7.27-19.3H237a9.32,9.32,0,0,1,0-18.63H311.6a9.31,9.31,0,0,1,9.31,9.31c0,10.11-2.9,25.54-11,38.52C302.42,297.84,287.9,312,261.06,312Z"
        style="fill:#e4007f" />
    <path
        d="M359.2,307.3a9.32,9.32,0,0,1,0-18.63c11.45,0,45.07,0,48.57-53.07h-65a9.32,9.32,0,1,1,0-18.63h74.63a9.32,9.32,0,0,1,9.32,9.32C426.7,278.53,402.73,307.3,359.2,307.3Z"
        style="fill:#e4007f" />
    <path d="M519.64,228H465.57a9.32,9.32,0,0,1,0-18.63h54.07a9.32,9.32,0,0,1,0,18.63Z"
        style="fill:#e4007f" />
    <path
        d="M477.91,312a9.32,9.32,0,0,1,0-18.63c14.72,0,25.83-5.82,33-17.31a56.11,56.11,0,0,0,7.27-19.3H453.82a9.32,9.32,0,1,1,0-18.63h74.63a9.31,9.31,0,0,1,9.32,9.31c0,10.11-2.9,25.54-11,38.52C519.27,297.84,504.76,312,477.91,312Z"
        style="fill:#e4007f" />
    <circle cx="414.44" cy="204.91" r="9.31" style="fill:#ff0073" />
    <circle cx="436.32" cy="201.31" r="9.31" style="fill:#ff0073" />
    <path
        d="M680.08,307.3a9.32,9.32,0,1,1,0-18.63c11.45,0,45.07,0,48.57-53.07h-65a9.32,9.32,0,0,1,0-18.63h74.64a9.31,9.31,0,0,1,9.31,9.32C747.57,278.53,723.6,307.3,680.08,307.3Z"
        style="fill:#e4007f" />
    <circle cx="735.32" cy="204.91" r="9.31" style="fill:#ff0073" />
    <circle cx="757.2" cy="201.31" r="9.31" style="fill:#ff0073" />
    <circle cx="787.04" cy="298.48" r="9.31" style="fill:#ff0073" />
    <path
        d="M557.25,271.45a9.32,9.32,0,0,1,0-18.63c10.23,0,26-5.85,41.06-15.26,14.55-9.08,26-19.94,29-27.66a9.32,9.32,0,1,1,17.3,6.92C634.85,241.32,586.66,271.45,557.25,271.45Z"
        style="fill:#e4007f" />
    <path
        d="M606,312a9.32,9.32,0,0,1-9.32-9.31v-57.6a9.32,9.32,0,0,1,18.63,0v57.6A9.31,9.31,0,0,1,606,312Z"
        style="fill:#e4007f" />
    <path
        d="M787,285.55a9.31,9.31,0,0,1-9.32-9.31V218.65a9.32,9.32,0,1,1,18.63,0v57.59A9.31,9.31,0,0,1,787,285.55Z"
        style="fill:#e4007f" />
</svg>