<svg id="Layer_2" data-name="Layer 2" xmlns="http://www.w3.org/2000/svg" viewBox="0 0 1024 512">
    <path
        d="M180.44,303.83q-5.4,7.44-10.32,3.24t1.56-10.68a30.77,30.77,0,0,1,8.76-5.76,2.47,2.47,0,0,0,1.56-2.4V268a.53.53,0,0,0-.6-.6h-3.48q-9,0-9-6t9-6h8.28q9,0,9,9v24.24a3.49,3.49,0,0,0,1.68,3.12l1.2.72q3.72,2.4,7.56,4.68,1.56,1,10,2.16a128.88,128.88,0,0,0,17.88,1q25.44,0,34.44-1.2t9.6,4.8q.48,6.12-8.64,6.36l-31.2.84q-4.56.12-9.12.12A88.17,88.17,0,0,1,214,310c-5.44-.89-8.76-1.68-10-2.4Q200,305.27,198,304t-5.88-4.08a5.91,5.91,0,0,0-3.48-1.2Q184.28,298.67,180.44,303.83Zm63.48-78.36q-7.08,0-7.08-6.48a.53.53,0,0,0-.6-.6H210a.53.53,0,0,0-.6.6q0,6.84-7.08,6.84T195.2,219a.53.53,0,0,0-.6-.6H178.88q-9,0-9-5.88t9-5.76H194.6a.53.53,0,0,0,.6-.6q0-5.64,7.08-5.64t7.08,5.64a.53.53,0,0,0,.6.6h26.28a.53.53,0,0,0,.6-.6q0-5.64,7.08-5.64t7.08,5.64a.53.53,0,0,0,.6.6h16.32q9,0,9,5.76t-9,5.88H251.6a.53.53,0,0,0-.6.6Q251,225.47,243.92,225.47Zm-53.28,18.6q-5.76,3.72-7.74.54a21.18,21.18,0,0,0-4.86-5.46q-7-5.52-3.24-10.32t10.92.24a34.36,34.36,0,0,1,8.1,7.62Q196.28,240.23,190.64,244.07Zm46.44,53.16q-6.6,0-6.6-5.4a.53.53,0,0,0-.6-.6h-21q-9,0-9-5t9-5h21a.53.53,0,0,0,.6-.6v-3.36a.53.53,0,0,0-.6-.6h-15.6q-9,0-9-9v-16.2q0-9,9-9h15.6a.53.53,0,0,0,.6-.6v-3.12a.53.53,0,0,0-.6-.6H210.8q-9,0-9-4.8t9-4.68h19.08a.53.53,0,0,0,.6-.6q0-4.68,6.6-4.68t6.6,4.68a.53.53,0,0,0,.6.6H264.8q9,0,9,4.68t-9,4.8H244.28a.53.53,0,0,0-.6.6v3.12a.53.53,0,0,0,.6.6H261q9,0,9,9v16.2q0,9-9,9H244.28a.53.53,0,0,0-.6.6v3.36a.53.53,0,0,0,.6.6h22.2q9,0,9,5t-9,5h-22.2a.53.53,0,0,0-.6.6Q243.68,297.23,237.08,297.23Zm-18.84-42.36a.53.53,0,0,0,.6.6h11a.53.53,0,0,0,.6-.6v-3.48a.53.53,0,0,0-.6-.6h-11a.53.53,0,0,0-.6.6Zm0,12.72a.53.53,0,0,0,.6.6h11a.53.53,0,0,0,.6-.6V264a.53.53,0,0,0-.6-.6h-11a.53.53,0,0,0-.6.6Zm25.44-12.72a.53.53,0,0,0,.6.6H255.8a.53.53,0,0,0,.6-.6v-3.48a.53.53,0,0,0-.6-.6H244.28a.53.53,0,0,0-.6.6Zm0,12.72a.53.53,0,0,0,.6.6H255.8a.53.53,0,0,0,.6-.6V264a.53.53,0,0,0-.6-.6H244.28a.53.53,0,0,0-.6.6Z"
        style="fill:#e4007f" />
    <path
        d="M307.88,304.43q-8.4,3.48-11.52-4.92T300.8,287l10.56-5.64a82.8,82.8,0,0,0,7.2-4.44,84.07,84.07,0,0,0,16.26-15.66,100.63,100.63,0,0,0,14.46-24.78q5.64-13.32,6.48-17.4,1.68-9.12,10.56-6.6l.6.24q8.88,2.52,5.52,11.16-1.44,3.72-3,7.92-9.12,25-21,39.84A121.82,121.82,0,0,1,328.76,291Q316,301.19,307.88,304.43Z"
        style="fill:#be1400" />
    <path
        d="M395.48,243.23q-7.08,0-7.08-9V223q0-9,9-9h35.28q.6,0,.36-.6l-.24-.72q-3.48-8.28,3.72-11.28t10.92,5l2.64,6a2.47,2.47,0,0,0,2.4,1.56h31.68q9,0,9,9v9q0,9-7.32,9t-7.44-9v-4.44a.53.53,0,0,0-.6-.6H403a.53.53,0,0,0-.6.6v6.72Q402.44,243.23,395.48,243.23Zm8.4,22.44q0-6.36,9-6.36H469.4q9,0,9,6.36t-9,6.36H448.52a.53.53,0,0,0-.6.6V295a.53.53,0,0,0,.6.6h35.16q9,0,9,6.48t-9,6.48H398.36q-9,0-9-6.48t9-6.48h33.72a.53.53,0,0,0,.6-.6V272.63a.53.53,0,0,0-.6-.6h-19.2Q403.88,272,403.88,265.67Zm10-10.56-9,4.32q-8.4,3.84-11-3.12t6.12-9.6A69.05,69.05,0,0,0,420,236q7.2-5.28,11.16-.12t-3,10.68A74.29,74.29,0,0,1,413.84,255.11Zm73.68.36q-4,6.24-11.52,1.32Q470.12,253,455.48,246q-8-3.84-5.4-9.6t10.8-2.16q20.64,9.24,22.56,10.44Q491.36,249.23,487.52,255.47Z"
        style="fill:#e4007f" />
    <path
        d="M608,305.63q-4.56,7.56-12.24,2.64-9.48-6.12-27.48-15.36a2.38,2.38,0,0,0-2.76.36q-7.92,6.36-21.48,11.16a132.76,132.76,0,0,1-24.36,6.48q-8.88,1.56-10-6.12t7.92-8.64a77.48,77.48,0,0,0,33-11.4q.48-.36-.12-.6-16.32-7.8-22.44-10.2-8.76-3.48-4.08-11.64,1.92-3.48,8.76-19.44.24-.6-.36-.6H516.68q-9,0-9-7.68t9-7.68h20.88a1.88,1.88,0,0,0,1.92-1.44q4.8-12.6,6.24-18.12,2.28-8.64,9.72-6.84t5.28,10.56a157.66,157.66,0,0,1-4.92,15.24q-.24.6.36.6h49.32q9,0,9,7.68t-9,7.68H595.16a1.23,1.23,0,0,0-1.32,1.08Q588.92,266,578.6,280q-.36.48.24.72,19.32,9.24,25.8,13Q612.56,298.19,608,305.63ZM562.4,273a1.67,1.67,0,0,0,2-.48q8.52-10.08,13.32-29.64.12-.6-.48-.6H551.36a1.88,1.88,0,0,0-1.92,1.44q-3.36,8.76-8.16,19.32a.57.57,0,0,0,.36.84Z"
        style="fill:#e4007f" />
    <path
        d="M662.36,311.75q-8.16.24-8-6.72t4.5-6.6q4.5.24,6.54.12,4.68-.24,5.58-.24a2.58,2.58,0,0,0,1.56-.48,1.94,1.94,0,0,0,.66-1.68v-14.4a.53.53,0,0,0-.6-.6H636.44q-9,0-9-6.6t9-6.6h36.12a.53.53,0,0,0,.6-.6q0-6.84,3.06-8a78.31,78.31,0,0,0,10-5.4q.48-.36-.12-.36h-28.2q-9,0-9-6.24T657.8,241l44-1.2q7.56-.12,10,4.2t-3.6,10q-4.56,4.08-18.84,11a2.47,2.47,0,0,0-1.56,2.4.53.53,0,0,0,.6.6h37q9,0,9,6.6t-9,6.6h-37a.53.53,0,0,0-.6.6v14.76q0,5.64-1.62,8.58a10.13,10.13,0,0,1-5.64,4.44,25.87,25.87,0,0,1-5.46,1.62q-4.68.36-9.36.48Zm-26.64-66.12q-6.72,0-6.72-9v-8.28q0-9,9-9h8.76q.6,0,.36-.48a58.61,58.61,0,0,0-4.86-7.74q-2.34-3.06,2.58-7.14t10.8,2.52a27.76,27.76,0,0,1,5,7.26q1.5,3.42-2.46,5.34-.6.24,0,.24h40.32a3.78,3.78,0,0,0,3.24-1.68q5.28-7.92,5.76-8.88,3.84-8.52,10.2-4.8t.84,11.28l-2.64,3.6q-.36.48.24.48H724q9,0,9,9v8.28q0,9-7,9t-7.08-9v-4.08a.53.53,0,0,0-.6-.6H643a.53.53,0,0,0-.6.6v4.08Q642.44,245.63,635.72,245.63Zm49.32-26q-7.2,2.52-10.44-5.88l-.72-1.92q-3-8,2.28-11t10.44,4a25.7,25.7,0,0,1,2.76,3.84Q692.12,217.07,685,219.59Z"
        style="fill:#e4007f" />
    <path
        d="M755.36,312.11q-6.24,0-6.24-9V214q0-8.88,8.88-9.36l16.56-.84q6.72-.36,9.72,2.4t.6,10.08l-7.68,23.16a3.73,3.73,0,0,0,.72,3.6q7.44,9.72,7.44,23.16,0,11.76-1.8,13.2-3.6,2.64-4.74,3.54t-5.7,1.74a27.29,27.29,0,0,1-6.12.3q-3.36-.18-3.24-6.18t3.12-6h1.56a2.68,2.68,0,0,0,1.62-.48q.66-.48,1.68-1.26t1-6.42q0-11.64-3.72-16.2a12.89,12.89,0,0,1-2.28-12.72q.24-.72,4.32-17.28.12-.6-.48-.6h-8.4a.53.53,0,0,0-.6.6v84.72Q761.6,312.11,755.36,312.11Zm36.48-2q-8.64,3-10.68-3.36t6.48-9.12q2.88-.84,8.52-8.52,4.56-6.36,5.76-18.12a.53.53,0,0,0-.6-.6h-4.8q-9,0-9-6.36t9-6.36h50.4q9,0,9,6.36t-9,6.36h-9.24a.53.53,0,0,0-.6.6v24a8.4,8.4,0,0,0,.36,3.18q.36.66,1.56.66h4.32q1.44,0,1.92-2.52a32.69,32.69,0,0,0,.66-6.06q.06-3.18,5.94-2.94t5.28,9.36a20.44,20.44,0,0,1-3.18,9.72c-1.88,2.95-4.94,4.44-9.18,4.44h-8.28q-7.68,0-10.32-3.42t-2.64-12.54V271a.53.53,0,0,0-.6-.6h-6.48a.87.87,0,0,0-1,.84q-1.32,15.84-7.08,24.72Q801.32,306.83,791.84,310.07Zm56.64-72q-6.84,0-6.84-9v-1.8a.53.53,0,0,0-.6-.6H801a.53.53,0,0,0-.6.6v1.8q0,9-6.6,9t-6.6-9v-5.64q0-9,9-9H814.4q.6,0,.36-.6a56.73,56.73,0,0,0-2.82-7.26q-1.14-2.22,4.74-5.58t10.56,4.32a41.62,41.62,0,0,1,2.88,7.92,1.58,1.58,0,0,0,1.68,1.2h14.52q9,0,9,9v5.64Q855.32,238.07,848.48,238.07Zm-43,10.68q-9,0-9-6.24t9-6.12h31.32q9,0,9,6.12t-9,6.24Z"
        style="fill:#e4007f" />
</svg>