<svg id="Layer_3" data-name="Layer 3" xmlns="http://www.w3.org/2000/svg" viewBox="0 0 1024 512">
    <path
        d="M432,336a11.14,11.14,0,0,1-11.14-11.14V217.21a11.14,11.14,0,1,1,22.28,0V324.86A11.14,11.14,0,0,1,432,336Z"
        style="fill:#e4007f" />
    <path
        d="M458,308.16A37.18,37.18,0,0,1,420.86,271a11.14,11.14,0,0,1,22.28,0,14.85,14.85,0,1,0,29.7,0V217.21a11.14,11.14,0,1,1,22.27,0v54.2c0,.15,0,.3,0,.45A37.17,37.17,0,0,1,458,308.16Z"
        style="fill:#e4007f" />
    <path
        d="M564.59,308.13c-11.31,0-22.86-3.42-31.34-9.92a11.14,11.14,0,0,1,13.55-17.68c8.26,6.34,21.8,6.65,29.25,3,4.81-2.37,4.81-5.07,4.81-6.08v-.11c-1.35-2.37-11-5.59-16.22-7.32-13.82-4.59-32.74-10.89-34.1-29.89-.94-13.22,6-24.54,18.5-30.28,15.82-7.26,36.16-3.73,48.37,8.39A11.13,11.13,0,1,1,581.72,234c-6.33-6.28-16.86-6.94-23.39-3.95-6,2.74-5.68,6.89-5.57,8.45.3,4.16,10.62,7.59,18.91,10.35,13.28,4.41,31.47,10.46,31.47,28.56,0,11.16-6.28,20.66-17.23,26.06A48.6,48.6,0,0,1,564.59,308.13Z"
        style="fill:#e4007f" />
    <circle cx="516.45" cy="187.14" r="11.14" style="fill:#f7931e" />
</svg>