<svg height="20" viewBox="0 0 20 20" width="20" xmlns="http://www.w3.org/2000/svg"><path d="m311.000724 10.0000203c-2.65399-.00535426-5.200827 1.04656-7.077485 2.9232183-1.876659 1.8766583-2.928573 4.4234952-2.923219 7.0774853 0 5.5383074 4.514318 9.9992586 10.000704 9.9992586 2.65349.0049719 5.199736-1.0469142 7.07604-2.9232183s2.92819-4.4225502 2.923218-7.0760403c0-5.5383073-4.512872-10.0007036-9.999258-10.0007036zm6.511838 13.0251387c-.124847.2835962-.406969.4652441-.716807.4615816-.103843 0-.206244 0-.308645-.0505354l-5.897432-2.6667527c-.278621-.1313616-.457818-.4102369-.461526-.7182492v-5.5383073c0-.409604.360567-.7687286.770171-.7687286s.768729.3591246.768729.7687286v5.0767817l5.435906 2.4619507c.409604.1543226.563926.5639266.409604.9735306z" fill="#d1e0f3" transform="translate(-301 -10)"/></svg>