<svg height="20" viewBox="0 0 20 20" width="20" xmlns="http://www.w3.org/2000/svg"><path d="m12.7550466.4072205v9.6645963c0 1.5403726-1.2670808 2.8074534-2.80745343 2.8074534-1.54037267 0-2.80745342-1.2670808-2.80745342-2.8074534 0-1.5403727 1.26708075-2.80745345 2.80745342-2.80745345.49689443 0 .96894413.12422361 1.39130433.37267081v-7.52795031c-.4720497-.07453416-.9192546-.09937888-1.39130433-.09937888-5.49068323 0-9.9378882 4.44720497-9.9378882 9.9378882s4.44720497 9.93788823 9.9378882 9.93788823 9.93788823-4.447205 9.93788823-9.93788823c0-4.52173913-3.0062112-8.32298137-7.1304348-9.54037267zm-8.49689443 8.09937888h-1.44099378c1.01863354-2.48447205 3.00621118-4.44720497 5.49068322-5.49068323v1.44099379c-1.78881987.81987577-3.22981366 2.26086956-4.04968944 4.04968944zm7.20496893 8.62111802v-1.4409938c1.7142857-.8944099 3.1552795-2.3354037 4.0496895-4.0496894h1.4409937c-1.0434782 2.484472-3.0310559 4.4720497-5.4906832 5.4906832z" fill="#d1e0f3" fill-rule="evenodd"/></svg>