<svg height="20" viewBox="0 0 20 20" width="20" xmlns="http://www.w3.org/2000/svg"><path d="m17.3319825 3.29295049h-14.66396498c-.70898417 0-1.38881399.28217071-1.88939045.78422079-.50057647.50205008-.78072907 1.18268463-.77861519 1.89162697v11.35935375c-.0010499.7082501.27957262 1.3878557.78003363 1.8890397.50046101.5011841 1.17968252.7828083 1.88797201.7828083h14.66396498c.7082895 0 1.387511-.2816242 1.887972-.7828083.500461-.501184.7810835-1.1807896.7800336-1.8890397v-11.35935375c.0021139-.70894234-.2780387-1.38957689-.7786152-1.89162697-.5005764-.50205008-1.1804062-.78422079-1.8893904-.78422079zm-13.90396679 4.25175811c.01725819-.33271549.29909524-.58956564.63199848-.57596723h7.93998101c.3344313-.01586234.6187531.24162259.6359985.57596723v.05599681c-.0255763.3279752-.3074062.57611376-.6359985.55996815h-7.93998101c-.32782914.01605831-.60848136-.23260733-.63199848-.55996815zm6.29998493 7.8275547c-.01717701.2758804-.25180498.4873895-.52799873.4759729h-5.33598725c-.27923844.0159424-.51883501-.196822-.53599871-.4759729v-.2439861c.01926491-.2781231.25753263-.4897076.53599871-.475973h5.33598725c.27846608-.0137346.51673381.1978499.53599872.475973zm-5.77198621-3.5357989c-.31088183.0159446-.57667754-.2212963-.59599855-.5319697v-.1279927c.01932101-.3106734.28511672-.5479144.59599855-.5319698h6.79998377c.3108818-.0159446.5766776.2212964.5959986.5319698v.1279927c-.019321.3106734-.2851168.5479144-.5959986.5319697zm13.29596827-2.1558773c-.2655518.25688267-.6773874.28557456-.9759977.06799612l-.7999981-.55996815v5.12770833c.0162628 1.1938857-.8975383 2.195161-2.087995 2.2878698-1.1486792.0530819-2.1451347-.7858202-2.2885358-1.9266866s.6144493-2.2002518 1.7405371-2.4330654c.3894972-.0822106.794273-.0531016 1.1679972.0839952v-4.53574191c-.0056471-.0451549-.0056471-.09083737 0-.13599227.016262-.09797034.0545579-.19096966.1119998-.27198452v-.0279984c0-.02799842.0439999-.05599681.0679998-.07999546l.0519999-.03999771.0599998-.04799728.0599999-.03199818.0679998-.03599795.0639999-.01999887.0719998-.01999886h.3239992c.0802292.01913082.1561918.05304083.2239995.09999431l1.9999952 1.37192196c.1846353.11875259.3070099.31334993.3340492.53119762s-.0440482.43645497-.1940495.59673822zm-14.58396518-6.8396109h14.66396498c.34846.01821665.6465286-.24771034.6679984-.5959661-.0092805-.16770603-.0849442-.32481902-.2102806-.43664s-.2900336-.16915012-.4577178-.15932608h-14.66396498c-.16768418-.00982405-.33238145.04750509-.45771785.15932607-.12533639.11182099-.20100011.26893397-.21028056.43664001.02146977.34825577.31953841.61418276.66799841.5959661zm1.19599714-1.63990671h12.27197064c.1662308.01093535.3299329-.04504919.4546509-.15548624s.2000959-.26615638.2093475-.43248031v-.02799839c-.0235381-.34389329-.3198958-.60453104-.6639984-.58396679h-12.27197064c-.34410258-.02056425-.64046029.2400735-.66399841.58396679v.02799839c.00925163.16632393.08462954.32204326.20934756.43248031.12471803.11043705.28842011.16642159.45465085.15548624z" fill="#d1e0f3" fill-rule="evenodd"/></svg>