<svg height="20" viewBox="0 0 20 20" width="20" xmlns="http://www.w3.org/2000/svg"><path d="m12.8 8.20416666c1.0833333-.8375 1.7833333-2.14583332 1.7833333-3.62083332 0-2.52916666-2.0541666-4.58333334-4.5833333-4.58333334-2.52916668 0-4.58333334 2.05416666-4.58333334 4.58333334 0 1.46666666.69583334 2.775 1.775 3.6125-4.19583332.87083332-7.19166666 3.67083336-7.19166666 7.08333336 0 3.8791666 3.05833334 4.6916666 7.65416666 4.7208333h1.72083334v-2.5875c-.75833334-.2083333-1.875-.9083333-1.875-3.2333333 0-3.1833334 2.07083334-3.3458334 2.4875-3.3458334.4208333 0 2.5125.1625 2.5125 3.3333334 0 2.3083333-1.1083333 3.0208333-1.875 3.2375v2.5958333h1.6916667l.5208333-.0083333c3.7208333-.0791667 7.1625-.7041667 7.1625-4.7125 0-3.4041667-2.9958333-6.20000004-7.2-7.07500004z" fill="#d1e0f3"/></svg>