<?xml version="1.0" encoding="UTF-8"?>
<svg width="20px" height="20px" viewBox="0 0 20 20" version="1.1" xmlns="http://www.w3.org/2000/svg" xmlns:xlink="http://www.w3.org/1999/xlink">
    <title>形状</title>
    <g id="页面-1" stroke="none" stroke-width="1" fill="none" fill-rule="evenodd">
        <g id="我的-我喜欢" transform="translate(-301.000000, -738.000000)" fill="#D1E0F3" fill-rule="nonzero">
            <g id="编组-8" transform="translate(0.000000, 728.000000)">
                <path d="M311.000724,10.0000203 C308.346734,9.99466604 305.799897,11.0465803 303.923239,12.9232386 C302.04658,14.7998969 300.994666,17.3467338 301.00002,20.0007239 C301.00002,25.5390313 305.514338,29.9999825 311.000724,29.9999825 C313.654214,30.0049544 316.20046,28.9530683 318.076764,27.0767642 C319.953068,25.2004601 321.004954,22.654214 320.999982,20.0007239 C320.999982,14.4624166 316.48711,10.0000203 311.000724,10.0000203 Z M317.512562,23.025159 C317.387715,23.3087552 317.105593,23.4904031 316.795755,23.4867406 C316.691912,23.4867406 316.589511,23.4867406 316.48711,23.4362052 L310.589678,20.7694525 C310.311057,20.6380909 310.13186,20.3592156 310.128152,20.0512033 L310.128152,14.512896 C310.128152,14.103292 310.488719,13.7441674 310.898323,13.7441674 C311.307927,13.7441674 311.667052,14.103292 311.667052,14.512896 L311.667052,19.5896777 L317.102958,22.0516284 C317.512562,22.205951 317.666884,22.615555 317.512562,23.025159 L317.512562,23.025159 Z" id="形状"></path>
            </g>
        </g>
    </g>
</svg>